<svg xmlns="http://www.w3.org/2000/svg" viewBox="0 0 128 128" width="64" height="64">
  <path fill="#F7DF1E" d="M1.408 1.408h125.184v125.185H1.408z"/>
  <path fill="#000" d="M116.347 96.736c-.917-5.711-4.641-10.508-15.672-14.981-3.832-1.761-8.104-3.022-9.377-5.926-.452-1.69-.512-2.642-.226-3.665.821-3.32 4.784-4.355 7.925-3.403 2.023.678 3.938 2.237 5.093 4.724 5.402-3.498 5.402-3.498 9.64-5.724 0 0-1.152-1.837-1.604-2.682-1.277-2.383-2.93-4.276-6.004-5.787a24.366 24.366 0 0 0-12.553-2.493c-3.832.063-7.308 1.292-9.604 3.618-7.63 6.227-5.591 17.087 3.421 21.579 8.492 4.293 14.65 8.030 14.65 14.207 0 4.917-3.708 9.028-11.44 6.005-4.458-2.336-6.91-5.71-9.849-13.56-4.719 2.688-4.719 2.688-8.398 4.853.874 2.021 1.981 3.768 3.21 5.571 8.773 10.569 27.94 10.049 33.116 4.578 6.070-5.754 4.916-14.006.002-19.050l2.324-1.143z"/>
  <path fill="#000" d="M66.754 67.008c0-6.283-3.896-8.725-9.749-10.909-4.916-1.77-6.497-3.015-6.497-5.296 0-1.888 1.519-4.544 8.181-4.544 6.266 0 8.749 2.631 8.749 6.266h9.074c0-8.544-4.916-15.074-17.823-15.074-11.017 0-17.558 4.544-17.558 12.266 0 7.378 4.916 10.909 12.539 13.013 6.754 1.770 7.378 4.266 7.378 6.754 0 3.896-3.149 5.402-8.544 5.402-7.378 0-9.074-3.149-9.074-7.378H33.362c0 8.544 4.544 16.266 18.848 16.266 11.017 0 18.377-4.544 18.377-13.013v-3.553z"/>
</svg>
