<svg xmlns="http://www.w3.org/2000/svg" viewBox="0 0 128 128" width="64" height="64">
  <path fill="#83CD29" d="M114.325 80.749c-.29 0-.578-.018-.866-.05-3.19-.356-6.04-1.96-8.03-4.52-1.996-2.567-2.917-5.779-2.592-9.04.65-6.499 6.219-11.749 12.799-12.07a12.983 12.983 0 0 1 9.407 3.33c2.555 2.273 4.081 5.532 4.081 8.726 0 6.449-5.245 11.694-11.694 11.694-.037 0-.074-.003-.111-.003l.006-.067zm-4.729-16.06c-3.51.198-6.635 2.815-7.103 5.95-.234 1.574.297 3.113 1.262 4.338 1.025 1.298 2.466 2.05 4.06 2.118.297.013.594.019.892.019 3.419 0 6.214-2.795 6.214-6.214 0-1.665-.669-3.156-1.75-4.244a6.226 6.226 0 0 0-3.575-1.967z"/>
  <path fill="#83CD29" d="M97.861 18.07c-1.085.084-2.166.25-3.232.498-6.704 1.559-12.251 6.752-15.202 14.257-2.954 7.514-2.591 15.833 1 22.832 7.15 13.936 24.645 19.473 38.581 12.324 6.999-3.59 12.192-9.137 14.257-15.202 2.064-6.065 1.312-12.524-2.063-17.729-6.721-10.368-20.597-17.557-33.341-16.98zm26.736 31.699c-1.492 4.379-5.386 8.274-10.686 10.686-10.568 4.809-23.054.836-27.863-8.732-2.409-4.79-2.656-10.319-.679-15.176 1.976-4.857 5.571-8.65 9.866-10.405 8.571-3.502 18.316-.681 22.362 6.469 2.033 3.595 2.565 7.804 1.458 11.743 5.313 2.043 5.542 5.415 5.542 5.415z"/>
  <path fill="#388E3C" d="M64 95.794c-17.464 0-31.668-14.204-31.668-31.668S46.536 32.458 64 32.458s31.668 14.204 31.668 31.668S81.464 95.794 64 95.794zm0-58.542c-14.794 0-26.874 12.08-26.874 26.874S49.206 90.999 64 90.999s26.874-12.08 26.874-26.874S78.794 37.252 64 37.252z"/>
  <path fill="#4CAF50" d="M64 84.626c-11.185 0-20.5-9.315-20.5-20.5s9.315-20.5 20.5-20.5 20.5 9.315 20.5 20.5-9.315 20.5-20.5 20.5zm0-36.206c-8.66 0-15.706 7.046-15.706 15.706S55.34 79.832 64 79.832s15.706-7.046 15.706-15.706S72.66 48.42 64 48.42z"/>
</svg>
