<svg xmlns="http://www.w3.org/2000/svg" viewBox="0 0 128 128" width="64" height="64">
  <path fill="#336791" d="M127.292 56.292c0-7.042-5.73-12.773-12.772-12.773-.353 0-.704.016-1.054.046L96.502 19.738a12.75 12.75 0 0 0-9.038-3.746h-46.93c-3.393 0-6.572 1.35-8.944 3.747L14.625 43.565c-.35-.03-.701-.046-1.054-.046C6.53 43.519.798 49.25.798 56.292s5.732 12.773 12.773 12.773c.353 0 .704-.016 1.054-.046l16.965 23.827a12.752 12.752 0 0 0 9.038 3.746h46.93c3.393 0 6.572-1.35 8.944-3.747l16.965-23.827c.35.03.701.046 1.054.046 7.041 0 12.772-5.731 12.772-12.773z"/>
  <circle fill="#fff" cx="64" cy="56.292" r="41.5"/>
  <path fill="#336791" d="M64 23.042c-18.43 0-33.25 14.82-33.25 33.25S45.57 89.542 64 89.542s33.25-14.82 33.25-33.25S82.43 23.042 64 23.042zm19.708 51.208c-2.167 3.542-6.417 5.833-11.125 5.833-4.708 0-8.958-2.291-11.125-5.833l-7.166-11.708h36.583l-7.167 11.708z"/>
</svg>
