<svg xmlns="http://www.w3.org/2000/svg" viewBox="0 0 128 128" width="64" height="64">
  <path fill="#FF6F00" d="M27.35 80.52l10.68-58.44h15.89l-10.68 58.44H27.35zm15.89-58.44h35.75l-1.78 9.78h-19.86l-2.23 12.44h18.52l-1.78 9.78H53.34l-2.67 14.78h20.31l-1.78 9.78H33.46l10.68-58.44h-.9zm47.52 58.44L101.44 22.08h16.78l-4.45 24.89h.45c1.78-3.56 4.45-6.67 8.01-9.34 3.56-2.67 7.56-4 12.01-4 7.56 0 13.34 2.67 17.34 8s4.89 12.44 2.67 21.78c-2.22 9.33-6.67 16.89-13.34 22.67s-14.67 8.67-24 8.67c-4.44 0-8.44-1.33-12-4h-.44l-2.67 14.78H90.76zm24.44-35.11c-1.33 7.11-.44 12.44 2.67 16s7.11 5.33 12 5.33c4.89 0 9.33-1.78 13.34-5.33s6.67-8.89 8-16c1.33-7.11.44-12.44-2.67-16s-7.11-5.33-12-5.33c-4.89 0-9.33 1.78-13.34 5.33s-6.67 8.89-8 16z"/>
  <path fill="#FF6F00" d="M28.79 80.52l10.67-58.44h15.90l-10.68 58.44H28.79zm15.90-58.44h35.75l-1.79 9.78H58.79l-2.23 12.44h18.52l-1.78 9.78H54.78l-2.67 14.78h20.31l-1.78 9.78H34.90l10.68-58.44h-.89z"/>
</svg>
